HIERARCHY
ROOT Hips
{
	OFFSET 0.000000 0.000000 0.000000
	CHANNELS 6 Xposition Yposition Zposition Xrotation Yrotation Zrotation
	JOINT LeftUpLeg_virtual
	{
		OFFSET 0.000000 0.000000 0.000000
		CHANNELS 3 Xrotation Yrotation Zrotation
		JOINT LeftUpLeg
		{
			OFFSET 13.026900 -6.336304 -1.092800
			CHANNELS 3 Xrotation Yrotation Zrotation
			JOINT LeftLeg
			{
				OFFSET 0.524474 -46.096886 9.782700
				CHANNELS 3 Xrotation Yrotation Zrotation
				JOINT LeftFoot
				{
					OFFSET -0.524474 -53.427422 -12.948200
					CHANNELS 3 Xrotation Yrotation Zrotation
					JOINT LeftToeBase
					{
						OFFSET 0.192200 -14.009700 16.364100
						CHANNELS 3 Xrotation Yrotation Zrotation
						JOINT LeftToe_End
						{
							OFFSET -1.784700 -0.561700 9.474800
							CHANNELS 3 Xrotation Yrotation Zrotation
							End Site
							{
								OFFSET 0 0 0
							}
						}
					}
				}
			}
		}
	}
	JOINT RightUpLeg_virtual
	{
		OFFSET 0.000000 0.000000 0.000000
		CHANNELS 3 Xrotation Yrotation Zrotation
		JOINT RightUpLeg
		{
			OFFSET -12.883000 -6.336304 -1.092800
			CHANNELS 3 Xrotation Yrotation Zrotation
			JOINT RightLeg
			{
				OFFSET -0.524587 -46.096825 9.782800
				CHANNELS 3 Xrotation Yrotation Zrotation
				JOINT RightFoot
				{
					OFFSET 0.524587 -53.427383 -12.948300
					CHANNELS 3 Xrotation Yrotation Zrotation
					JOINT RightToeBase
					{
						OFFSET -0.192200 -14.009700 16.364100
						CHANNELS 3 Xrotation Yrotation Zrotation
						JOINT RightToe_End
						{
							OFFSET 1.784700 -0.561700 9.474800
							CHANNELS 3 Xrotation Yrotation Zrotation
							End Site
							{
								OFFSET 0 0 0
							}
						}
					}
				}
			}
		}
	}
	JOINT Spine_virtual
	{
		OFFSET 0.000000 0.000000 0.000000
		CHANNELS 3 Xrotation Yrotation Zrotation
		JOINT Spine
		{
			OFFSET 0.072000 7.257294 -0.789700
			CHANNELS 3 Xrotation Yrotation Zrotation
			JOINT Spine1
			{
				OFFSET 0.000000 12.508769 -0.658067
				CHANNELS 3 Xrotation Yrotation Zrotation
				JOINT Spine1_split
				{
					OFFSET 0.000000 12.508769 -0.658067
					CHANNELS 3 Xrotation Yrotation Zrotation
					JOINT Spine2
					{
						OFFSET 0.000000 12.508769 -0.658067
						CHANNELS 3 Xrotation Yrotation Zrotation
						JOINT Neck_virtual
						{
							OFFSET 0.000000 0.000000 0.000000
							CHANNELS 3 Xrotation Yrotation Zrotation
							JOINT Neck
							{
								OFFSET 0.000000 14.033295 7.520400
								CHANNELS 3 Xrotation Yrotation Zrotation
								JOINT Head
								{
									OFFSET 0.000000 8.198502 5.703100
									CHANNELS 3 Xrotation Yrotation Zrotation
									JOINT HeadTop_End
									{
										OFFSET 0.000000 17.760803 13.332701
										CHANNELS 3 Xrotation Yrotation Zrotation
										End Site
										{
											OFFSET 0 0 0
										}
									}
								}
							}
						}
						JOINT LeftShoulder_virtual
						{
							OFFSET 0.000000 0.000000 0.000000
							CHANNELS 3 Xrotation Yrotation Zrotation
							JOINT LeftShoulder
							{
								OFFSET 6.292450 5.785301 -0.669000
								CHANNELS 3 Xrotation Yrotation Zrotation
								JOINT LeftShoulder_split
								{
									OFFSET 6.292450 5.785301 -0.669000
									CHANNELS 3 Xrotation Yrotation Zrotation
									JOINT LeftArm
									{
										OFFSET 13.907140 -6.093903 1.965100
										CHANNELS 3 Xrotation Yrotation Zrotation
										JOINT LeftForeArm
										{
											OFFSET 34.140198 0.000000 0.000000
											CHANNELS 3 Xrotation Yrotation Zrotation
											JOINT LeftHand
											{
												OFFSET 40.960209 0.000000 0.000000
												CHANNELS 3 Xrotation Yrotation Zrotation
												End Site
												{
													OFFSET 0 0 0
												}
											}
										}
									}
								}
							}
						}
						JOINT RightShoulder_virtual
						{
							OFFSET 0.000000 0.000000 0.000000
							CHANNELS 3 Xrotation Yrotation Zrotation
							JOINT RightShoulder
							{
								OFFSET -6.292450 5.785301 -0.669000
								CHANNELS 3 Xrotation Yrotation Zrotation
								JOINT RightShoulder_split
								{
									OFFSET -6.292450 5.785301 -0.669000
									CHANNELS 3 Xrotation Yrotation Zrotation
									JOINT RightArm
									{
										OFFSET -13.907140 -6.093903 1.965100
										CHANNELS 3 Xrotation Yrotation Zrotation
										JOINT RightForeArm
										{
											OFFSET -34.140198 0.000000 0.000000
											CHANNELS 3 Xrotation Yrotation Zrotation
											JOINT RightHand
											{
												OFFSET -40.960209 0.000000 0.000000
												CHANNELS 3 Xrotation Yrotation Zrotation
												End Site
												{
													OFFSET 0 0 0
												}
											}
										}
									}
								}
							}
						}
					}
				}
			}
		}
	}
}
MOTION
Frames: 4
Frame Time: 0.03333333
-12.177517 95.540550 10.204067 0.000000 0.000000 0.000000 14.913983 -45.844745 18.448566 -51.776266 32.145548 30.427216 39.225575 -23.510565 2.508170 -3.095218 -1.255988 -7.974422 -4.452239 -5.847758 0.398897 0.000000 0.000000 0.000000 12.322045 -41.505454 17.763353 -17.693151 -6.296916 -32.809958 40.746159 0.771364 -5.943780 -35.213689 -6.438379 24.716178 4.595458 3.719517 2.118942 0.000000 0.000000 0.000000 14.027419 -42.334342 18.164461 13.507090 -5.979148 -0.516956 26.287868 -1.835542 -1.493078 -0.143029 -3.070762 1.855761 0.000000 0.000000 0.000000 13.232364 -1.731018 -2.212759 2.278314 3.150365 12.888385 15.090389 0.546450 -6.064901 0.000000 0.000000 0.000000 15.469829 -2.649156 -2.957482 3.238312 -28.769563 1.485061 -1.099391 -3.883750 -0.067910 -32.748076 -14.585012 -32.056520 -5.388253 -16.011048 1.165490 0.000000 0.000000 0.000000 14.283337 -1.157064 -1.946019 2.484866 13.478670 18.350709 10.286149 1.709592 3.255471 -10.774798 -9.638617 13.460890 -78.164576 83.234939 75.707668 0.000000 0.000000 0.000000 
-11.031574 95.794098 9.946831 0.000000 0.000000 0.000000 10.802613 -44.380903 14.588738 -52.386407 31.766793 30.673878 40.632444 -24.232032 2.698183 -1.436207 -2.778339 -7.042402 -3.970887 -5.685534 0.128473 0.000000 0.000000 0.000000 8.311802 -39.992964 14.102025 -14.240564 -6.898281 -32.260841 39.760502 0.674772 -5.906457 -33.754976 -7.025344 25.583618 4.624957 3.531332 2.293045 0.000000 0.000000 0.000000 10.419232 -42.212949 15.130981 13.385346 -5.662277 -0.171932 24.889121 -0.982217 -1.624586 0.371969 -3.138925 2.224510 0.000000 0.000000 0.000000 12.429271 -0.762453 -2.354524 1.350558 4.025424 11.251938 13.588090 1.594643 -7.985842 0.000000 0.000000 0.000000 14.423020 -1.792899 -3.066622 3.114359 -29.218521 1.595039 -0.567465 -3.144085 -0.462054 -30.811226 -10.842254 -30.096740 -6.503022 -17.185328 0.151311 0.000000 0.000000 0.000000 13.386050 -0.357027 -2.108122 2.144426 13.384502 19.175172 9.588021 1.521605 4.014258 -10.534627 -12.225003 11.226744 -84.309868 86.233447 82.138837 0.000000 0.000000 0.000000 
-10.065705 95.858971 9.514473 0.000000 0.000000 0.000000 6.970545 -42.897597 11.056551 -53.444454 31.396433 31.395443 41.930702 -24.735870 2.838608 0.445127 -4.224238 -6.277553 -3.444330 -5.546176 -0.180504 0.000000 0.000000 0.000000 4.753294 -38.620075 10.856494 -11.485332 -7.523750 -31.548166 39.385606 0.624852 -5.906287 -32.363881 -7.459908 26.518602 4.246973 3.366762 2.457832 0.000000 0.000000 0.000000 6.901256 -41.771668 12.188348 13.121074 -5.193746 0.490718 23.572757 -0.229172 -1.673144 0.895959 -3.290424 2.333465 0.000000 0.000000 0.000000 11.596025 0.122520 -2.332757 -0.729851 4.910950 8.885276 11.841064 2.938621 -9.833925 0.000000 0.000000 0.000000 13.451941 -0.958771 -2.995497 2.929494 -29.459552 1.673103 0.253670 -2.408610 -0.769659 -29.947726 -7.321251 -28.894757 -7.835919 -19.015264 -1.159097 0.000000 0.000000 0.000000 12.463955 0.353353 -2.119778 1.851821 12.981703 19.521984 8.989736 1.700217 4.467709 -10.051726 -15.086261 10.570089 -90.251722 88.621431 88.579193 0.000000 0.000000 0.000000 
-9.316700 95.753578 9.167797 0.000000 0.000000 0.000000 3.585280 -42.014792 7.958991 -54.650095 31.045921 32.463466 43.046239 -24.943514 2.953393 2.167888 -5.480255 -5.704914 -3.274587 -5.465585 -0.415382 0.000000 0.000000 0.000000 1.912258 -37.817289 8.099649 -9.609508 -8.002385 -30.686814 39.434449 0.756091 -5.964724 -31.071285 -7.587221 27.524373 3.349450 3.253476 2.523039 0.000000 0.000000 0.000000 3.977462 -41.304599 9.525096 12.903563 -4.650022 1.356825 22.204199 0.364995 -1.692639 1.295442 -3.152066 2.179416 0.000000 0.000000 0.000000 10.578541 0.856537 -2.233924 -3.626064 5.748959 6.709882 10.082601 4.544317 -11.378615 0.000000 0.000000 0.000000 12.391147 -0.196583 -2.809008 2.753263 -29.573032 1.749112 1.408224 -1.947323 -0.727960 -29.641932 -4.480397 -28.524453 -9.240846 -21.580319 -2.657137 0.000000 0.000000 0.000000 11.377261 0.942184 -2.029638 1.648312 12.289629 19.144546 8.468215 2.225738 4.365145 -9.508304 -17.334650 11.844735 13.380479 89.382294 -14.458368 0.000000 0.000000 0.000000 
